IKResults
version=1
nRows=12
nColumns=24
inDegrees=yes

Units are S.I. units (second, meters, Newtons, ...)
If the header above contains a line with 'inDegrees', this indicates whether rotational values are in degrees (yes) or radians (no).

endheader
time	pelvis_tilt	pelvis_list	pelvis_rotation	pelvis_tx	pelvis_ty	pelvis_tz	hip_flexion_r	hip_adduction_r	hip_rotation_r	knee_angle_r	ankle_angle_r	subtalar_angle_r	mtp_angle_r	hip_flexion_l	hip_adduction_l	hip_rotation_l	knee_angle_l	ankle_angle_l	subtalar_angle_l	mtp_angle_l	lumbar_extension	lumbar_bending	lumbar_rotation
      6.36500000	     11.19296278	      5.91880193	   -179.10255045	      0.32061470	      0.36266914	     -1.21340871	    100.36775612	    -38.33072569	     -3.59440065	   -135.38666018	     43.57944438	     12.96512098	      0.00000000	    114.94085120	    -37.26860284	     17.11029393	   -134.41977474	     41.31655169	     26.90914499	      0.00000000	    -20.20059410	      6.63312028	      5.24719055
      6.37000000	     11.28308796	      6.12137318	   -179.20277422	      0.32087955	      0.36220781	     -1.21264625	    100.38117500	    -38.37907524	     -3.79807668	   -135.32246409	     43.50942794	     13.10095482	      0.00000000	    115.33558245	    -37.25915512	     17.35688735	   -134.55112751	     41.30007180	     26.91324373	      0.00000000	    -20.18326603	      6.96273717	      5.46541716
      6.37500000	     11.27456313	      6.15797123	   -179.20377636	      0.32110893	      0.36159470	     -1.21261436	    100.48155965	    -38.42971821	     -3.78781532	   -135.39732871	     43.45365010	     13.16391627	      0.00000000	    115.53892104	    -37.29192273	     17.46963296	   -134.63524473	     41.22653218	     27.01580371	      0.00000000	    -20.24260136	      6.99278063	      5.52924951
      6.38000000	     11.31669944	      6.20824901	   -179.05440633	      0.32128101	      0.36080375	     -1.21226788	    100.64060684	    -38.67881341	     -3.72795791	   -135.48906648	     43.47334776	     13.23811034	      0.00000000	    115.74925789	    -37.14821950	     17.49889397	   -134.73891979	     41.22938254	     27.11363684	      0.00000000	    -20.19852890	      7.11069301	      5.44074853
      6.38500000	     11.29939186	      6.18100531	   -179.15632062	      0.32161941	      0.36031197	     -1.21264379	    100.75485253	    -38.57559180	     -3.69989499	   -135.54684432	     43.47767269	     13.29078599	      0.00000000	    115.92195010	    -37.32879457	     17.59301538	   -134.76198572	     41.12586691	     27.22134085	      0.00000000	    -20.28031118	      7.02314678	      5.55742892
      6.39000000	     11.26044964	      6.00181154	   -179.01614855	      0.32185668	      0.35954733	     -1.21343151	    101.05288421	    -38.66638154	     -3.43500418	   -135.75118632	     43.51558318	     13.24521526	      0.00000000	    115.93651489	    -37.38709857	     17.47064999	   -134.75992647	     41.02156552	     27.52853989	      0.00000000	    -20.32572243	      6.73042374	      5.37364678
      6.39500000	     11.32943819	      6.18869233	   -179.13054194	      0.32202970	      0.35915533	     -1.21279396	    101.03191088	    -38.68727321	     -3.63011203	   -135.68967672	     43.44933377	     13.36290251	      0.00000000	    116.29460375	    -37.41424616	     17.70362463	   -134.87957311	     41.02271481	     27.52972978	      0.00000000	    -20.32926364	      7.04391514	      5.53578900
      6.40000000	     11.33926864	      6.21605561	   -179.11514255	      0.32220835	      0.35866404	     -1.21272923	    101.14562407	    -38.75713149	     -3.62442852	   -135.75047514	     43.39755595	     13.35284610	      0.00000000	    116.45114860	    -37.44420764	     17.73053331	   -134.91756602	     41.01335767	     27.60332545	      0.00000000	    -20.35927184	      7.09451098	      5.52343458
      6.40500000	     11.34785002	      6.21667865	   -179.13498439	      0.32235998	      0.35822279	     -1.21265142	    101.27960813	    -38.78251997	     -3.57957165	   -135.80302829	     43.34786549	     13.36399381	      0.00000000	    116.63617397	    -37.50730834	     17.80672311	   -134.98747001	     40.92880451	     27.75640664	      0.00000000	    -20.39507305	      7.10135656	      5.56620032
      6.41000000	     11.34965293	      6.23344034	   -179.12294599	      0.32252675	      0.35774928	     -1.21260878	    101.39947277	    -38.83663867	     -3.54818698	   -135.85519349	     43.26869890	     13.38627557	      0.00000000	    116.79185160	    -37.53145279	     17.86639339	   -135.04159338	     40.89179630	     27.83339226	      0.00000000	    -20.43706542	      7.12342445	      5.58153715
      6.41500000	     11.38672624	      6.23670264	   -179.11217948	      0.32277600	      0.35720677	     -1.21256893	    101.52858496	    -38.86929931	     -3.51236649	   -135.91029307	     43.29074686	     13.43637558	      0.00000000	    116.96526840	    -37.55121692	     17.89350279	   -135.08733346	     40.82453104	     27.91333958	      0.00000000	    -20.44502219	      7.13077489	      5.56699413
      6.42000000	     11.36362731	      6.25727978	   -179.11081869	      0.32298244	      0.35682304	     -1.21250546	    101.59985532	    -38.89325333	     -3.47718824	   -135.94690513	     43.22661935	     13.49541001	      0.00000000	    117.07974614	    -37.58827252	     17.94578373	   -135.13932202	     40.80055790	     27.94853777	      0.00000000	    -20.51076169	      7.14761417	      5.62180801
